<svg width="50" height="62" viewBox="0 0 50 62" fill="none" xmlns="http://www.w3.org/2000/svg">
<path d="M0.5 49.5V0.5H38.3889V11.1111V11.6111H38.8889H49.5V60.6111H11.6111V50V49.5H11.1111H0.5ZM33.3333 44.9444H33.8333V44.4444V5.55556V5.05556H33.3333H5.55556H5.05556V5.55556V44.4444V44.9444H5.55556H33.3333ZM38.8889 16.1667H38.3889V16.6667V49.5H16.6667H16.1667V50V55.5556V56.0556H16.6667H44.4444H44.9444V55.5556V16.6667V16.1667H44.4444H38.8889ZM27.2778 16.1667H11.6111V11.6111H27.2778V16.1667ZM27.2778 27.2778H11.6111V22.7222H27.2778V27.2778ZM27.2778 33.8333V38.3889H11.6111V33.8333H27.2778Z" fill="black" stroke="white"/>
</svg>
