<svg width="64" height="63" viewBox="0 0 64 63" fill="none" xmlns="http://www.w3.org/2000/svg">
<g filter="url(#filter0_f)">
<path d="M5.47217 5.0675H58.4365L54.2533 17.1447L39.8146 24.7014H24.2964L11.7469 17.1447L5.47217 5.0675Z" fill="black" fill-opacity="0.1"/>
</g>
<circle cx="31.9207" cy="30.8412" r="10.0531" fill="white"/>
<path d="M11.9847 14.5133C9.02003 11.1642 6.81194 7.76629 5.50751 5.06747C3.28098 6.95664 2.92169 8.43489 2.67375 11.0049C2.25834 15.3108 4.90028 18.0893 7.86898 20.7881C9.97405 23.217 15.898 25.4885 18.5968 26.3207C18.6193 26.3881 18.6508 26.685 18.5968 27.3327C13.4016 26.1857 11.5124 24.9038 7.1268 22.4074C3.55087 19.7086 2.94363 18.8989 0.447205 16.0652C0.349635 16.5725 0.282501 16.8433 0.207483 17.3471C0.0828258 18.1842 0.020752 19.5062 0.020752 19.5062C0.020752 19.5062 -0.02594 20.5359 0.020752 21.1929C0.0603125 21.7496 0.09251 22.0637 0.207483 22.6098C1.13413 27.0115 6.51955 28.952 9.01595 30.0315C10.9591 31.0031 15.4931 31.9207 17.5172 32.2581V33.0002C13.7389 32.5954 16.5052 33.3376 9.01595 31.3135C2.13397 28.2773 4.15808 29.087 0.177323 25.9158C0.244793 29.7617 0.120144 30.5973 1.72914 32.8653C3.47138 35.3211 6.0104 36.0263 8.42373 36.6966L8.47619 36.7111C10.6892 37.5747 15.8305 37.6557 18.1245 37.5882V38.4654C17.3373 38.5328 14.9668 38.6408 11.7822 38.5328C6.58702 38.0605 4.5629 36.9135 1.72914 35.2268C1.86408 36.5762 3.68579 42.9184 8.61113 43.4582C12.5514 43.89 17.8996 42.9634 20.0811 42.4461C20.1486 42.5811 20.324 42.9454 20.4859 43.3232C15.6281 44.875 12.7943 44.875 6.99188 44.875H6.99184C10.0955 48.8558 10.6987 48.6752 13.8064 49.1932C17.464 49.8028 21.0257 47.2365 22.8474 46.2919L23.5221 46.8317C23.2972 46.9891 22.7394 47.3715 22.3076 47.6413C20.0136 49.1257 17.5847 49.8004 12.9967 51.0149C15.2232 53.3089 16.8328 53.5921 19.5413 53.3763C22.5371 53.1376 24.984 50.6775 26.086 49.3281L26.7607 49.7329C26.7382 49.7779 26.6662 49.9623 26.5583 50.3402C25.5462 52.8366 20.6209 54.8607 19.0016 55.2655C19.3389 55.4679 19.5413 55.6029 20.8233 56.2776L20.8444 56.2855C22.983 57.0875 23.0908 57.1279 24.5342 56.8848C27.0518 56.4607 28.6499 53.5787 29.2571 52.3643L30.2017 52.7691C30.1567 52.8815 29.7259 54.308 29.2218 55.198C28.2166 56.9729 26.6932 57.8969 25.5462 58.9089C26.2884 59.5836 29.2627 62.0658 32.0909 62.0126C34.8714 61.9602 38.1632 59.2463 38.4331 58.774C37.9608 58.5716 36.4861 57.0716 35.5318 55.7378C34.7769 54.6825 34.3174 53.6237 33.9126 52.8366C33.9351 52.8141 34.115 52.7016 34.6547 52.4317C34.8571 52.7691 35.5318 53.8486 37.2186 55.6029C38.568 56.8443 39.9849 57.0197 40.5247 56.9523C42.6163 56.8173 43.291 56.2101 44.9103 55.198C41.9416 54.3884 42.2114 54.3884 39.9849 52.9715C38.6355 51.73 37.5785 50.4301 37.2186 49.9353L37.8933 49.3281L38.0957 49.5305C38.0957 49.5305 39.2562 50.8394 40.9295 52.0269C43.0211 53.5113 45.9898 53.5113 47.2043 53.3763C48.1758 53.2684 49.2733 52.6117 49.7007 52.2968C51.0501 51.1498 50.8477 51.2173 51.0501 50.8799C49.4308 50.5426 50.5778 50.8125 49.3633 50.5426C45.9223 49.7329 46.9344 49.9353 44.7753 49.1257C41.4288 47.5604 40.6371 46.9441 40.6596 46.8317C40.7271 46.7867 40.9295 46.6293 41.1994 46.3594C42.8861 47.2365 45.2476 48.1136 47.6765 48.9233C50.2151 49.3909 50.7995 49.5611 52.6276 48.9312C53.5675 48.6074 54.0378 48.3303 54.8605 47.7088C56.0097 46.8407 56.3128 45.9546 57.0549 44.8076C51.7248 45.01 53.0742 44.9425 49.4982 44.5377C47.0693 44.3758 44.6179 43.6156 43.6958 43.2558L43.9657 42.6485C48.4457 43.4582 52.3545 43.6156 53.7489 43.5931C57.1224 43.4582 57.5362 43.0146 59.2815 41.5015C61.1248 39.9034 61.7329 37.5433 62.1827 35.9689L62.3176 35.1593L62.1827 35.2268C58.6068 37.3184 58.5393 37.2509 55.773 37.9256C52.3725 38.7352 47.744 38.5778 45.8548 38.3979V37.7907C46.4621 37.7457 52.1971 37.4533 52.1971 37.4533C52.1971 37.4533 56.8847 36.981 59.5513 35.2268C62.1904 33.4907 63.5546 30.144 63.802 28.3448V25.9158L63.7345 25.9833C63.2172 26.703 61.3731 28.4932 58.1345 29.8966C54.0862 31.6508 55.4356 30.9761 53.0742 31.8532C51.185 32.5549 47.789 32.9103 46.3271 33.0002V32.4605C49.3183 31.8757 55.9484 30.2609 58.5393 28.4797C61.7779 26.2532 62.1966 25.9037 63.2622 23.4194C64.3952 20.7782 64.0044 18.4266 63.5321 16.0652C62.3851 18.6965 56.5826 22.6773 53.0742 24.5664C50.2674 26.0778 46.9215 26.9054 45.4822 27.0628C45.399 26.9901 45.4822 27.0628 45.4147 26.658C46.5617 25.9158 50.752 24.7406 53.6814 22.6773C56.5453 20.6602 58.6572 19.5985 60.0911 16.4025C60.6304 15.2005 61.0004 12.4892 61.0004 12.4892C61.0004 12.4892 61.0648 9.07093 60.0911 7.22653C59.5818 6.26185 58.4044 5 58.4044 5C56.5152 10.3976 53.4579 13.3316 49.026 17.5495C45.7506 20.6667 41.9737 22.9471 39.6122 24.4315C40.6243 25.9833 41.0965 26.5708 41.5014 28.0749C41.9737 29.8291 42.0049 30.8949 41.7038 32.6629C41.4548 34.1254 41.2315 34.7545 40.4894 36.0364C40.0497 36.7958 39.7836 37.1295 39.2074 37.7232C38.8173 38.1252 38.1279 38.6678 38.1279 38.6678C37.8849 38.8604 37.6055 39.0477 37.1833 39.275C36.3452 39.7263 35.262 39.6124 34.5873 39.2075C32.1583 37.1159 33.3053 34.8894 33.8451 33.9448C34.8572 32.7304 35.8017 32.7978 37.556 32.8653C36.8813 30.5038 35.8018 30.1665 33.8451 28.6821C31.7535 27.4002 31.0113 26.658 29.527 25.2411C28.7174 26.7255 28.4757 27.2259 28.9872 28.3448C29.3842 29.2131 30.6065 29.7617 30.8764 29.8966C31.1463 30.0315 31.1463 29.9641 31.2812 30.3689C29.9993 31.1785 28.38 32.393 27.5704 34.4846C26.7607 36.5762 27.0306 36.5087 27.0306 39.4099C25.8202 38.6693 24.8953 37.8125 24.1922 36.9135C23.3447 35.8298 22.8197 34.6847 22.5059 33.6075C22.1079 32.2407 22.05 30.9832 22.1052 30.099C22.191 28.7277 22.4467 28.0725 22.931 26.8604C23.3411 25.8341 23.6735 25.4472 24.2643 24.364C18.6643 21.4628 16.0596 19.1167 11.9847 14.5133Z" fill="black"/>
<defs>
<filter id="filter0_f" x="0.472168" y="0.0675049" width="62.9643" height="29.6339" filterUnits="userSpaceOnUse" color-interpolation-filters="sRGB">
<feFlood flood-opacity="0" result="BackgroundImageFix"/>
<feBlend mode="normal" in="SourceGraphic" in2="BackgroundImageFix" result="shape"/>
<feGaussianBlur stdDeviation="2.5" result="effect1_foregroundBlur"/>
</filter>
</defs>
</svg>
